<?xml version="1.0" encoding="utf-8"?>
<!-- Generator: Adobe Illustrator 18.0.0, SVG Export Plug-In . SVG Version: 6.00 Build 0)  -->
<!DOCTYPE svg PUBLIC "-//W3C//DTD SVG 1.1//EN" "http://www.w3.org/Graphics/SVG/1.1/DTD/svg11.dtd">
<svg version="1.1" id="Слой_1" xmlns="http://www.w3.org/2000/svg" xmlns:xlink="http://www.w3.org/1999/xlink" x="0px" y="0px"
	 viewBox="0 0 1559.1 566.9" enable-background="new 0 0 1559.1 566.9" xml:space="preserve">
<g>
	<path fill="#1CA0BC" d="M753.3,200.2h-5.1v-73.7h40.4v4.7h-35.2v31.3h33.3v4.8h-33.3V200.2z"/>
	<path fill="#1CA0BC" d="M803.7,200.2h-5v-78.4h5V200.2z"/>
	<path fill="#1CA0BC" d="M821.4,130.2c0-3.2,1.1-4.8,3.2-4.8c1,0,1.9,0.4,2.4,1.3c0.6,0.8,0.9,2,0.9,3.6c0,1.5-0.3,2.7-0.9,3.6
		c-0.6,0.9-1.4,1.3-2.4,1.3C822.4,135.1,821.4,133.5,821.4,130.2z M827.1,200.2h-5v-54.8h5V200.2z"/>
	<path fill="#1CA0BC" d="M888.2,145.4v3.5l-11.3,0.7c3,3.8,4.5,7.9,4.5,12.4c0,5.3-1.8,9.6-5.3,12.8c-3.5,3.3-8.2,4.9-14.1,4.9
		c-2.5,0-4.2-0.1-5.2-0.3c-2,1-3.5,2.3-4.5,3.7c-1,1.4-1.6,2.9-1.6,4.5c0,1.7,0.7,3,2,3.8s3.6,1.2,6.7,1.2h9.6
		c5.9,0,10.5,1.2,13.7,3.6c3.2,2.4,4.7,6,4.7,10.7c0,5.8-2.3,10.2-7,13.4c-4.7,3.1-11.4,4.7-20,4.7c-6.9,0-12.2-1.3-16-4
		c-3.8-2.7-5.7-6.4-5.7-11.1c0-3.8,1.2-6.9,3.5-9.4c2.3-2.5,5.5-4.2,9.5-5.1c-1.6-0.7-3-1.7-4-3c-1-1.3-1.5-2.8-1.5-4.5
		c0-3.7,2.3-6.9,7-9.7c-3.2-1.3-5.7-3.4-7.5-6.2c-1.8-2.8-2.7-6-2.7-9.7c0-5.5,1.7-9.9,5.2-13.2c3.5-3.3,8.2-5,14.1-5
		c3.6,0,6.4,0.4,8.4,1.1H888.2z M843.8,209.5c0,7.5,5.6,11.3,16.8,11.3c14.4,0,21.6-4.6,21.6-13.8c0-3.3-1.1-5.7-3.4-7.2
		c-2.3-1.5-5.9-2.2-10.9-2.2h-9C848.8,197.6,843.8,201.6,843.8,209.5z M848,162.5c0,4.2,1.3,7.5,3.9,9.9c2.6,2.3,6,3.5,10.3,3.5
		c4.6,0,8.1-1.2,10.5-3.5c2.4-2.3,3.7-5.7,3.7-10.1c0-4.7-1.3-8.2-3.8-10.5c-2.5-2.3-6-3.5-10.5-3.5c-4.4,0-7.8,1.3-10.3,3.8
		C849.3,154.5,848,158,848,162.5z"/>
	<path fill="#1CA0BC" d="M937.6,200.2v-35.5c0-5.5-1.2-9.5-3.5-12c-2.3-2.5-5.9-3.8-10.8-3.8c-6.6,0-11.4,1.7-14.4,5
		c-3,3.3-4.6,8.7-4.6,16.1v30.2h-5v-78.4h5v25l-0.3,7h0.4c2-3.3,4.6-5.7,7.8-7.2c3.1-1.5,7-2.2,11.6-2.2c12.4,0,18.7,6.7,18.7,20
		v35.8H937.6z"/>
	<path fill="#1CA0BC" d="M974.8,196.8c3.2,0,5.9-0.3,8.3-0.8v4c-2.4,0.8-5.2,1.2-8.4,1.2c-4.8,0-8.4-1.3-10.7-3.9
		c-2.3-2.6-3.5-6.7-3.5-12.2v-35.4h-8.1v-2.9l8.1-2.3l2.5-12.4h2.6v13.3h16.1v4.3h-16.1v34.7c0,4.2,0.7,7.3,2.2,9.3
		C969.3,195.8,971.6,196.8,974.8,196.8z"/>
	<path fill="#1CA0BC" d="M1063.7,181.2c0,6.2-2.3,11-6.8,14.6c-4.5,3.6-10.5,5.4-18,5.4c-9,0-15.9-1-20.7-3v-5.1
		c5.3,2.3,12.1,3.4,20.3,3.4c6,0,10.8-1.4,14.4-4.2c3.5-2.8,5.3-6.4,5.3-10.9c0-2.8-0.6-5.1-1.8-6.9s-3.1-3.5-5.7-5
		s-6.6-3.1-11.7-4.9c-7.5-2.6-12.7-5.4-15.6-8.4c-2.9-3-4.3-7-4.3-12c0-5.5,2.2-10,6.5-13.5c4.3-3.5,9.9-5.2,16.7-5.2
		c6.9,0,13.4,1.3,19.5,3.9l-1.9,4.4c-6.1-2.6-12-3.8-17.5-3.8c-5.4,0-9.8,1.3-13,3.8c-3.2,2.5-4.8,5.9-4.8,10.3c0,2.7,0.5,5,1.5,6.7
		c1,1.7,2.6,3.3,4.9,4.7c2.3,1.4,6.1,3.1,11.6,5c5.7,2,10.1,3.9,13,5.8c2.9,1.9,5,4,6.3,6.4C1063,175,1063.7,177.8,1063.7,181.2z"/>
	<path fill="#1CA0BC" d="M1100.1,201.2c-8,0-14.2-2.5-18.6-7.4c-4.5-4.9-6.7-11.8-6.7-20.6c0-8.7,2.2-15.7,6.5-21
		c4.3-5.3,10.1-7.9,17.4-7.9c6.5,0,11.5,2.3,15.3,6.8c3.7,4.5,5.6,10.6,5.6,18.3v4H1080c0.1,7.5,1.8,13.3,5.3,17.2
		c3.4,4,8.4,5.9,14.8,5.9c3.1,0,5.9-0.2,8.2-0.7c2.4-0.4,5.4-1.4,9-2.8v4.5c-3.1,1.3-5.9,2.3-8.6,2.7
		C1106.2,201,1103.3,201.2,1100.1,201.2z M1098.7,148.8c-5.3,0-9.5,1.7-12.7,5.2c-3.2,3.5-5.1,8.5-5.6,15h33.9
		c0-6.4-1.4-11.3-4.1-14.9C1107.3,150.6,1103.5,148.8,1098.7,148.8z"/>
	<path fill="#1CA0BC" d="M1167.9,200.2l-1.3-8.7h-0.4c-2.8,3.5-5.6,6-8.5,7.5c-2.9,1.5-6.3,2.2-10.3,2.2c-5.4,0-9.6-1.4-12.6-4.1
		c-3-2.8-4.5-6.6-4.5-11.4c0-5.3,2.2-9.5,6.7-12.5s10.9-4.5,19.3-4.7l10.4-0.3v-3.6c0-5.2-1.1-9.1-3.2-11.8c-2.1-2.7-5.5-4-10.2-4
		c-5.1,0-10.3,1.4-15.8,4.2l-1.9-4.3c6-2.8,12-4.2,17.8-4.2c6,0,10.5,1.6,13.5,4.7c3,3.1,4.5,8,4.5,14.6v36.4H1167.9z M1147.8,196.7
		c5.8,0,10.5-1.7,13.8-5c3.4-3.3,5.1-8,5.1-13.9v-5.4l-9.6,0.4c-7.7,0.4-13.2,1.6-16.5,3.6c-3.3,2-4.9,5.2-4.9,9.5
		c0,3.4,1,6.1,3.2,8C1141,195.7,1143.9,196.7,1147.8,196.7z"/>
	<path fill="#1CA0BC" d="M1210.9,144.4c2.3,0,4.8,0.2,7.5,0.7l-1,4.8c-2.3-0.6-4.7-0.9-7.1-0.9c-4.7,0-8.5,2-11.5,5.9
		c-3,4-4.5,9-4.5,15v30.2h-5v-54.8h4.2l0.5,9.9h0.4c2.3-4,4.7-6.9,7.2-8.5C1204.2,145.2,1207.3,144.4,1210.9,144.4z"/>
	<path fill="#1CA0BC" d="M1251.4,201.2c-7.8,0-14-2.5-18.4-7.4s-6.7-11.8-6.7-20.7c0-9.1,2.3-16.1,6.9-21.2
		c4.6-5.1,10.9-7.6,18.9-7.6c4.7,0,9.3,0.8,13.6,2.5l-1.4,4.4c-4.7-1.6-8.9-2.4-12.4-2.4c-6.7,0-11.8,2.1-15.3,6.2
		c-3.5,4.2-5.2,10.1-5.2,17.9c0,7.4,1.7,13.2,5.2,17.4c3.5,4.2,8.3,6.3,14.5,6.3c5,0,9.6-0.9,13.9-2.7v4.6
		C1261.7,200.4,1257.1,201.2,1251.4,201.2z"/>
	<path fill="#1CA0BC" d="M1316.8,200.2v-35.5c0-5.5-1.2-9.5-3.5-12c-2.3-2.5-5.9-3.8-10.8-3.8c-6.6,0-11.4,1.7-14.4,5
		c-3,3.3-4.6,8.7-4.6,16.1v30.2h-5v-78.4h5v25l-0.3,7h0.4c2.1-3.3,4.6-5.7,7.8-7.2c3.1-1.5,7-2.2,11.6-2.2c12.4,0,18.7,6.7,18.7,20
		v35.8H1316.8z"/>
	<path fill="#1CA0BC" d="M806.9,324.1h-4.2l-16.2-56.9c-1.3-4.7-2.4-8.5-3-11.5c-0.5,2.9-1.3,6.3-2.3,10.1
		c-1,3.8-6.4,23.2-16.3,58.3h-4.3l-20.3-73.7h5.4l12.9,47.5c0.5,1.9,1,3.7,1.4,5.3c0.4,1.6,0.8,3.2,1.2,4.6c0.4,1.4,0.7,2.8,1,4.1
		c0.3,1.3,0.5,2.7,0.8,4c0.8-4.6,2.5-11.5,5.1-20.8l12.6-44.7h5.7l14.8,51.3c1.7,5.9,2.9,10.7,3.7,14.3c0.4-2.4,1-5,1.7-7.7
		c0.7-2.7,5.9-22,15.6-57.9h5.2L806.9,324.1z"/>
	<path fill="#1CA0BC" d="M838.3,254.1c0-3.2,1.1-4.8,3.2-4.8c1,0,1.9,0.4,2.4,1.3c0.6,0.8,0.9,2,0.9,3.6c0,1.5-0.3,2.7-0.9,3.6
		c-0.6,0.9-1.4,1.3-2.4,1.3C839.4,259,838.3,257.3,838.3,254.1z M844,324.1h-5v-54.8h5V324.1z"/>
	<path fill="#1CA0BC" d="M882.4,268.2c4,0,7.4,0.7,10.3,2.2c2.9,1.4,5.5,3.9,7.8,7.4h0.3c-0.2-4.2-0.3-8.4-0.3-12.5v-19.7h4.9v78.4
		h-3.3l-1.3-8.4h-0.4c-4.2,6.3-10.2,9.4-17.9,9.4c-7.6,0-13.3-2.4-17.3-7.1c-4-4.7-6-11.6-6-20.6c0-9.5,2-16.7,5.9-21.7
		C869.1,270.8,874.9,268.2,882.4,268.2z M882.4,272.8c-6,0-10.5,2.1-13.5,6.3c-3,4.2-4.5,10.3-4.5,18.3c0,15.5,6,23.3,18.1,23.3
		c6.2,0,10.7-1.8,13.6-5.4c2.9-3.6,4.3-9.5,4.3-17.8v-0.9c0-8.5-1.4-14.6-4.3-18.3C893.4,274.6,888.8,272.8,882.4,272.8z"/>
	<path fill="#1CA0BC" d="M966.6,269.3v3.5l-11.3,0.7c3,3.8,4.5,7.9,4.5,12.4c0,5.3-1.8,9.6-5.3,12.8c-3.5,3.3-8.2,4.9-14.1,4.9
		c-2.5,0-4.2-0.1-5.2-0.3c-2,1-3.5,2.3-4.5,3.7c-1,1.4-1.6,2.9-1.6,4.5c0,1.7,0.7,3,2,3.8c1.3,0.8,3.6,1.2,6.7,1.2h9.6
		c5.9,0,10.5,1.2,13.7,3.6c3.2,2.4,4.7,6,4.7,10.7c0,5.8-2.3,10.2-7,13.4c-4.7,3.1-11.4,4.7-20,4.7c-6.9,0-12.2-1.3-16-4
		c-3.8-2.7-5.7-6.4-5.7-11.1c0-3.8,1.2-6.9,3.5-9.4c2.3-2.5,5.5-4.2,9.5-5.1c-1.6-0.7-3-1.7-4-3c-1-1.3-1.5-2.8-1.5-4.5
		c0-3.7,2.3-6.9,7-9.7c-3.2-1.3-5.7-3.4-7.5-6.2c-1.8-2.8-2.7-6-2.7-9.7c0-5.5,1.7-9.9,5.2-13.2c3.5-3.3,8.2-5,14.1-5
		c3.6,0,6.4,0.4,8.4,1.1H966.6z M922.2,333.4c0,7.5,5.6,11.3,16.8,11.3c14.4,0,21.6-4.6,21.6-13.8c0-3.3-1.1-5.7-3.4-7.2
		c-2.3-1.5-5.9-2.2-10.9-2.2h-9C927.2,321.5,922.2,325.5,922.2,333.4z M926.4,286.4c0,4.2,1.3,7.5,3.9,9.9c2.6,2.3,6,3.5,10.3,3.5
		c4.6,0,8.1-1.2,10.5-3.5s3.7-5.7,3.7-10.1c0-4.7-1.3-8.2-3.8-10.5c-2.5-2.3-6-3.5-10.5-3.5c-4.4,0-7.8,1.3-10.3,3.8
		C927.6,278.4,926.4,281.9,926.4,286.4z"/>
	<path fill="#1CA0BC" d="M999.9,325.1c-8,0-14.2-2.5-18.6-7.4c-4.5-4.9-6.7-11.8-6.7-20.6c0-8.7,2.1-15.7,6.5-21
		c4.3-5.3,10.1-7.9,17.4-7.9c6.5,0,11.5,2.3,15.3,6.8c3.7,4.5,5.6,10.6,5.6,18.3v4h-39.5c0.1,7.5,1.8,13.3,5.3,17.2
		c3.4,4,8.4,5.9,14.8,5.9c3.1,0,5.9-0.2,8.2-0.7c2.4-0.4,5.4-1.4,9-2.8v4.5c-3.1,1.3-5.9,2.3-8.6,2.7
		C1006,324.9,1003.1,325.1,999.9,325.1z M998.5,272.7c-5.3,0-9.5,1.7-12.7,5.2c-3.2,3.5-5.1,8.5-5.6,15h33.9
		c0-6.4-1.4-11.3-4.1-14.9C1007.2,274.5,1003.4,272.7,998.5,272.7z"/>
	<path fill="#1CA0BC" d="M1048.9,320.7c3.2,0,5.9-0.3,8.3-0.8v4c-2.4,0.8-5.2,1.2-8.4,1.2c-4.8,0-8.4-1.3-10.7-3.9
		c-2.3-2.6-3.5-6.7-3.5-12.2v-35.4h-8.1v-2.9l8.1-2.3l2.5-12.4h2.6v13.3h16.1v4.3h-16.1v34.7c0,4.2,0.7,7.3,2.2,9.3
		C1043.5,319.7,1045.8,320.7,1048.9,320.7z"/>
	<path fill="#1CA0BC" d="M1097.1,250.4h20.2c9.1,0,15.8,1.5,20.1,4.6c4.3,3.1,6.4,7.8,6.4,14c0,4.3-1.3,7.8-3.9,10.7
		c-2.6,2.8-6.4,4.7-11.4,5.5v0.3c5.9,0.9,10.2,2.7,13,5.6c2.8,2.8,4.2,6.8,4.2,11.9c0,6.8-2.3,12-6.8,15.7
		c-4.5,3.7-10.9,5.5-19.2,5.5h-22.6V250.4z M1102.3,283.2h16.2c6.9,0,12-1.2,15.1-3.5c3.1-2.3,4.7-5.9,4.7-10.8s-1.8-8.5-5.3-10.7
		c-3.5-2.2-8.8-3.3-15.9-3.3h-14.9V283.2z M1102.3,287.8v31.8h17.3c13.6,0,20.5-5.5,20.5-16.6c0-10.1-7.2-15.2-21.6-15.2H1102.3z"/>
	<path fill="#1CA0BC" d="M1165.6,324.1h-5v-78.4h5V324.1z"/>
	<path fill="#1CA0BC" d="M1229.3,296.6c0,8.9-2.2,15.9-6.5,20.9c-4.3,5-10.3,7.5-17.9,7.5c-4.8,0-9-1.2-12.7-3.5
		c-3.7-2.3-6.5-5.6-8.4-10c-1.9-4.3-2.9-9.3-2.9-15c0-8.9,2.2-15.9,6.5-20.9c4.3-5,10.3-7.5,17.8-7.5c7.5,0,13.4,2.5,17.7,7.6
		C1227.1,280.9,1229.3,287.8,1229.3,296.6z M1186,296.6c0,7.5,1.7,13.4,5,17.6c3.3,4.2,8,6.3,14,6.3c6,0,10.7-2.1,14-6.3
		c3.3-4.2,5-10.1,5-17.6c0-7.6-1.7-13.4-5-17.6c-3.3-4.2-8-6.3-14.1-6.3c-6,0-10.7,2.1-14,6.2C1187.7,283.2,1186,289,1186,296.6z"/>
	<path fill="#1CA0BC" d="M1266.3,325.1c-7.8,0-14-2.5-18.4-7.4c-4.4-4.9-6.7-11.8-6.7-20.7c0-9.1,2.3-16.1,6.9-21.2
		c4.6-5.1,10.9-7.6,18.9-7.6c4.7,0,9.3,0.8,13.6,2.5l-1.4,4.4c-4.7-1.6-8.9-2.4-12.4-2.4c-6.7,0-11.8,2.1-15.3,6.2
		s-5.2,10.1-5.2,17.9c0,7.4,1.7,13.2,5.2,17.4c3.5,4.2,8.3,6.3,14.5,6.3c5,0,9.6-0.9,13.9-2.7v4.6
		C1276.6,324.3,1272,325.1,1266.3,325.1z"/>
	<path fill="#1CA0BC" d="M1298.4,300.1l28-30.8h6l-21.6,23.4l23.4,31.4h-6l-20.8-27.7l-9,8.2v19.5h-5v-78.4h5V285l-0.4,15.1H1298.4z
		"/>
	<path fill="#1CA0BC" d="M1377.4,309.8c0,4.9-1.9,8.7-5.6,11.3c-3.7,2.6-9,4-15.9,4c-7.3,0-13.1-1.1-17.4-3.4v-5.4
		c5.5,2.8,11.3,4.1,17.4,4.1c5.4,0,9.5-0.9,12.3-2.7c2.8-1.8,4.2-4.2,4.2-7.2c0-2.8-1.1-5.1-3.4-7c-2.2-1.9-5.9-3.7-11-5.5
		c-5.5-2-9.3-3.7-11.5-5.1c-2.2-1.4-3.9-3-5-4.8c-1.1-1.8-1.7-4-1.7-6.6c0-4.1,1.7-7.3,5.2-9.7c3.4-2.4,8.3-3.6,14.4-3.6
		c5.9,0,11.5,1.1,16.8,3.3l-1.9,4.5c-5.4-2.2-10.4-3.3-15-3.3c-4.5,0-8,0.7-10.6,2.2c-2.6,1.5-3.9,3.5-3.9,6.2c0,2.9,1,5.1,3.1,6.9
		c2,1.7,6,3.6,11.9,5.7c4.9,1.8,8.5,3.4,10.8,4.8s3.9,3,5.1,4.9S1377.4,307.4,1377.4,309.8z"/>
</g>
<g>
	<path fill="#188DA8" d="M781,444.6h-9.5l-5.3-20.6c-0.2-0.7-0.5-2.3-1-4.6c-0.5-2.3-0.7-3.8-0.8-4.6c-0.1,1-0.4,2.5-0.8,4.7
		s-0.8,3.7-1,4.6l-5.3,20.6h-9.5l-10-39.3h8.2l5,21.5c0.9,4,1.5,7.4,1.9,10.3c0.1-1,0.4-2.6,0.7-4.7c0.4-2.1,0.7-3.8,1.1-5l5.7-22
		h7.9l5.7,22c0.3,1,0.6,2.5,0.9,4.5s0.7,3.8,0.9,5.2c0.2-1.4,0.5-3.1,0.9-5.2c0.4-2.1,0.8-3.8,1.1-5.1l5-21.5h8.2L781,444.6z"/>
	<path fill="#188DA8" d="M842.6,424.9c0,6.5-1.6,11.5-4.8,15s-7.9,5.2-13.9,5.2s-10.6-1.7-13.9-5.2s-4.8-8.5-4.8-15.1
		c0-6.5,1.6-11.5,4.9-15c3.2-3.5,7.9-5.2,13.9-5.2c6,0,10.7,1.7,13.9,5.2C841,413.4,842.6,418.4,842.6,424.9z M813.9,424.9
		c0,4.4,0.8,7.7,2.5,9.9s4.2,3.3,7.5,3.3c6.6,0,10-4.4,10-13.3c0-8.9-3.3-13.3-9.9-13.3c-3.3,0-5.8,1.1-7.5,3.3
		C814.8,417.2,813.9,420.5,813.9,424.9z"/>
	<path fill="#188DA8" d="M870.1,429.5v15.1h-8.3v-39.3h11.5c5.3,0,9.3,1,11.9,2.9c2.6,1.9,3.8,4.9,3.8,8.9c0,2.3-0.6,4.4-1.9,6.2
		c-1.3,1.8-3.1,3.2-5.4,4.2c5.9,8.8,9.8,14.5,11.6,17.1h-9.2l-9.4-15.1H870.1z M870.1,422.8h2.7c2.6,0,4.6-0.4,5.8-1.3
		c1.3-0.9,1.9-2.3,1.9-4.1c0-1.9-0.6-3.2-1.9-4s-3.3-1.2-6-1.2h-2.5V422.8z"/>
	<path fill="#188DA8" d="M941.8,424.6c0,6.5-1.8,11.4-5.5,14.9c-3.7,3.4-9,5.2-16,5.2h-11.1v-39.3h12.3c6.4,0,11.4,1.7,14.9,5.1
		S941.8,418.5,941.8,424.6z M933.1,424.8c0-8.4-3.7-12.7-11.2-12.7h-4.4v25.6h3.6C929.1,437.7,933.1,433.4,933.1,424.8z"/>
	<path fill="#188DA8" d="M988.1,417.6c0,4.2-1.3,7.5-4,9.7c-2.6,2.2-6.4,3.4-11.3,3.4h-3.6v14h-8.3v-39.3h12.6c4.8,0,8.4,1,10.9,3.1
		C986.8,410.4,988.1,413.5,988.1,417.6z M969.3,423.8h2.7c2.6,0,4.5-0.5,5.8-1.5c1.3-1,1.9-2.5,1.9-4.4c0-2-0.5-3.4-1.6-4.3
		s-2.7-1.4-5-1.4h-3.8V423.8z"/>
	<path fill="#188DA8" d="M1014.8,429.5v15.1h-8.3v-39.3h11.5c5.3,0,9.3,1,11.9,2.9c2.6,1.9,3.8,4.9,3.8,8.9c0,2.3-0.6,4.4-1.9,6.2
		s-3.1,3.2-5.4,4.2c5.9,8.8,9.8,14.5,11.6,17.1h-9.2l-9.4-15.1H1014.8z M1014.8,422.8h2.7c2.6,0,4.6-0.4,5.8-1.3
		c1.3-0.9,1.9-2.3,1.9-4.1c0-1.9-0.6-3.2-1.9-4c-1.3-0.8-3.3-1.2-6-1.2h-2.5V422.8z"/>
	<path fill="#188DA8" d="M1076.5,444.6h-22.6v-39.3h22.6v6.8h-14.3v8.6h13.3v6.8h-13.3v10.1h14.3V444.6z"/>
	<path fill="#188DA8" d="M1118.9,433.7c0,3.5-1.3,6.3-3.8,8.4s-6.1,3.1-10.7,3.1c-4.2,0-7.9-0.8-11.1-2.4V435c2.7,1.2,4.9,2,6.7,2.5
		s3.5,0.7,5,0.7c1.8,0,3.2-0.3,4.2-1s1.5-1.7,1.5-3.1c0-0.8-0.2-1.5-0.6-2.1c-0.4-0.6-1.1-1.2-1.9-1.7s-2.5-1.4-5.1-2.7
		c-2.4-1.1-4.2-2.2-5.4-3.3c-1.2-1-2.2-2.2-2.9-3.6c-0.7-1.4-1.1-3-1.1-4.8c0-3.5,1.2-6.2,3.5-8.2c2.4-2,5.6-3,9.8-3
		c2,0,4,0.2,5.8,0.7c1.9,0.5,3.8,1.2,5.8,2l-2.7,6.5c-2.1-0.9-3.8-1.5-5.2-1.8c-1.4-0.3-2.7-0.5-4-0.5c-1.6,0-2.8,0.4-3.6,1.1
		s-1.3,1.7-1.3,2.9c0,0.7,0.2,1.4,0.5,1.9c0.3,0.5,0.9,1.1,1.6,1.6c0.7,0.5,2.5,1.4,5.3,2.8c3.7,1.8,6.2,3.5,7.6,5.3
		C1118.2,429,1118.9,431.1,1118.9,433.7z"/>
	<path fill="#188DA8" d="M1160.3,433.7c0,3.5-1.3,6.3-3.8,8.4s-6.1,3.1-10.7,3.1c-4.2,0-7.9-0.8-11.1-2.4V435c2.7,1.2,4.9,2,6.7,2.5
		c1.8,0.5,3.5,0.7,5,0.7c1.8,0,3.2-0.3,4.2-1c1-0.7,1.5-1.7,1.5-3.1c0-0.8-0.2-1.5-0.6-2.1c-0.4-0.6-1.1-1.2-1.9-1.7
		c-0.8-0.6-2.5-1.4-5.1-2.7c-2.4-1.1-4.2-2.2-5.4-3.3c-1.2-1-2.2-2.2-2.9-3.6c-0.7-1.4-1.1-3-1.1-4.8c0-3.5,1.2-6.2,3.5-8.2
		c2.4-2,5.6-3,9.8-3c2,0,4,0.2,5.8,0.7s3.8,1.2,5.8,2l-2.7,6.5c-2.1-0.9-3.8-1.5-5.2-1.8c-1.4-0.3-2.7-0.5-4-0.5
		c-1.6,0-2.8,0.4-3.6,1.1c-0.8,0.7-1.3,1.7-1.3,2.9c0,0.7,0.2,1.4,0.5,1.9c0.3,0.5,0.9,1.1,1.6,1.6c0.7,0.5,2.5,1.4,5.3,2.8
		c3.7,1.8,6.2,3.5,7.6,5.3C1159.6,429,1160.3,431.1,1160.3,433.7z"/>
	<path fill="#188DA8" d="M1230.9,417.6c0,4.2-1.3,7.5-4,9.7c-2.6,2.2-6.4,3.4-11.3,3.4h-3.6v14h-8.3v-39.3h12.6
		c4.8,0,8.4,1,10.9,3.1C1229.6,410.4,1230.9,413.5,1230.9,417.6z M1212.1,423.8h2.7c2.6,0,4.5-0.5,5.8-1.5c1.3-1,1.9-2.5,1.9-4.4
		c0-2-0.5-3.4-1.6-4.3c-1.1-0.9-2.7-1.4-5-1.4h-3.8V423.8z"/>
	<path fill="#188DA8" d="M1249.3,444.6v-39.3h8.3v32.4h15.9v6.9H1249.3z"/>
	<path fill="#188DA8" d="M1323.4,405.3v25.4c0,2.9-0.6,5.4-1.9,7.6c-1.3,2.2-3.2,3.9-5.6,5c-2.5,1.2-5.4,1.7-8.7,1.7
		c-5.1,0-9-1.3-11.8-3.9c-2.8-2.6-4.2-6.1-4.2-10.6v-25.3h8.3v24.1c0,3,0.6,5.3,1.8,6.7c1.2,1.4,3.2,2.1,6,2.1
		c2.7,0,4.7-0.7,5.9-2.1c1.2-1.4,1.8-3.7,1.8-6.7v-24H1323.4z"/>
	<path fill="#188DA8" d="M1359,422.5h15.6v20.4c-2.5,0.8-4.9,1.4-7.1,1.7s-4.5,0.5-6.8,0.5c-5.9,0-10.5-1.7-13.6-5.2
		s-4.7-8.5-4.7-15c0-6.3,1.8-11.3,5.4-14.8s8.7-5.3,15.1-5.3c4,0,7.9,0.8,11.7,2.4l-2.8,6.7c-2.9-1.4-5.9-2.2-9-2.2
		c-3.6,0-6.5,1.2-8.7,3.6c-2.2,2.4-3.3,5.7-3.3,9.8c0,4.3,0.9,7.5,2.6,9.8c1.7,2.2,4.3,3.4,7.6,3.4c1.7,0,3.5-0.2,5.3-0.5v-8.2h-7.4
		V422.5z"/>
	<path fill="#188DA8" d="M1394.9,444.6v-39.3h8.3v39.3H1394.9z"/>
	<path fill="#188DA8" d="M1459.1,444.6h-10.6l-17.1-29.7h-0.2c0.3,5.3,0.5,9,0.5,11.2v18.5h-7.4v-39.3h10.5l17.1,29.4h0.2
		c-0.3-5.1-0.4-8.7-0.4-10.8v-18.6h7.5V444.6z"/>
</g>
<path fill="#188DA8" d="M657.8,325H464.1c0.1-2.1,0.2-4.2,0.2-6.3c0-14.7-2.6-28.7-7.1-41.2h78c7.1,0,12.9-5.8,12.9-12.9
	c0-7.1-5.8-12.9-12.9-12.9h-91.5c-11.3-15.6-26.5-26.4-43.6-30.1v-49c0-7.1-5.8-12.9-12.9-12.9c-7.1,0-12.9,5.8-12.9,12.9v49
	c-17.1,3.7-32.3,14.6-43.6,30.1h-91.5c-7.1,0-12.9,5.8-12.9,12.9c0,7.1,5.8,12.9,12.9,12.9h78c-4.5,12.5-7.1,26.5-7.1,41.2
	c0,2.1,0.1,4.2,0.2,6.3H116.6c-7.1,0-12.9,5.8-12.9,12.9c0,7.1,5.8,12.9,12.9,12.9h68c-1.2,3.7-1.9,7.7-1.9,11.8
	c0,20.7,16.9,37.6,37.6,37.6c20.7,0,37.6-16.9,37.6-37.6c0-4.1-0.7-8.1-1.9-11.8h58.5c10.4,38.6,39.1,66.4,72.9,66.4
	c33.7,0,62.4-27.8,72.9-66.4h58.5c-1.2,3.7-1.9,7.7-1.9,11.8c0,20.7,16.9,37.6,37.6,37.6c20.7,0,37.6-16.9,37.6-37.6
	c0-4.1-0.7-8.1-1.9-11.8h68c7.1,0,12.9-5.8,12.9-12.9C670.6,330.8,664.9,325,657.8,325z"/>
<path fill="#15A4C4" d="M657.8,315H464.1c0.1-2.1,0.2-4.2,0.2-6.3c0-14.7-2.6-28.7-7.1-41.2h78c7.1,0,12.9-5.8,12.9-12.9
	c0-7.1-5.8-12.9-12.9-12.9h-91.5c-11.3-15.6-26.5-26.4-43.6-30.1v-49c0-7.1-5.8-12.9-12.9-12.9c-7.1,0-12.9,5.8-12.9,12.9v49
	c-17.1,3.7-32.3,14.6-43.6,30.1h-91.5c-7.1,0-12.9,5.8-12.9,12.9c0,7.1,5.8,12.9,12.9,12.9h78c-4.5,12.5-7.1,26.5-7.1,41.2
	c0,2.1,0.1,4.2,0.2,6.3H116.6c-7.1,0-12.9,5.8-12.9,12.9c0,7.1,5.8,12.9,12.9,12.9h68c-1.2,3.7-1.9,7.7-1.9,11.8
	c0,20.7,16.9,37.6,37.6,37.6c20.7,0,37.6-16.9,37.6-37.6c0-4.1-0.7-8.1-1.9-11.8h58.5c10.4,38.6,39.1,66.4,72.9,66.4
	c33.7,0,62.4-27.8,72.9-66.4h58.5c-1.2,3.7-1.9,7.7-1.9,11.8c0,20.7,16.9,37.6,37.6,37.6c20.7,0,37.6-16.9,37.6-37.6
	c0-4.1-0.7-8.1-1.9-11.8h68c7.1,0,12.9-5.8,12.9-12.9C670.6,320.8,664.9,315,657.8,315z"/>
<path fill="#FFFFFF" stroke="#FFFFFF" stroke-miterlimit="10" d="M232,352.6c0,6.5-5.3,11.8-11.8,11.8c-6.5,0-11.8-5.3-11.8-11.8
	c0-6.5,5.3-11.8,11.8-11.8C226.7,340.7,232,346,232,352.6z"/>
<path fill="#FFFFFF" stroke="#FFFFFF" stroke-miterlimit="10" d="M566,352.6c0,6.5-5.3,11.8-11.8,11.8c-6.5,0-11.8-5.3-11.8-11.8
	c0-6.5,5.3-11.8,11.8-11.8C560.7,340.7,566,346,566,352.6z"/>
<path fill="#FFFFFF" d="M409.2,266.4h-44.9c-7.1,0-12.9,5.8-12.9,12.9c0,7.1,5.8,12.9,12.9,12.9h44.9c7.1,0,12.9-5.8,12.9-12.9
	C422.1,272.2,416.3,266.4,409.2,266.4z"/>
</svg>
